<?xml version="1.0" encoding="utf-8"?>
<!-- Generator: Adobe Illustrator 18.0.0, SVG Export Plug-In . SVG Version: 6.00 Build 0)  -->
<!DOCTYPE svg PUBLIC "-//W3C//DTD SVG 1.1//EN" "http://www.w3.org/Graphics/SVG/1.1/DTD/svg11.dtd">
<svg version="1.1" xmlns="http://www.w3.org/2000/svg" xmlns:xlink="http://www.w3.org/1999/xlink" x="0px" y="0px"
	 viewBox="0 0 1000 438" enable-background="new 0 0 1000 438" xml:space="preserve">
<g id="Layer_3" display="none">
	<rect y="-485.2" display="inline" fill="#3F3B3A" width="1000" height="1129.8"/>
</g>
<g id="Layer_1">
</g>
<g id="Layer_2">
	<g>
		<g>
			<path fill="#222222" d="M750.3,108.6c-7.5,7.5-10.6,10.7-10.3,14.3c6.2-13.9,23.2-22.5,46.2-17.8c-4.8,2.3-7.8,5-8.8,9
				c6.7-5.8,8.1-15.1,48.3,0c5.7,2.1,42.4,22.4,40,26.5c-9.7,1.2-26.7-3.1-46.9-1.9c-35.1,2-78.6,17.3-108,36.6
				c-12.7,8.3-24.3,0.6-24.3,0.6s22-28,70.8-42.7c53-16,79.3-3.9,79.6-5.9c0.2-1-23.5-6-55.4-1.5c-23.2,3.2-49.8,14.1-72.5,28
				c-7.1,4.3-17.2,13.3-23,20.7c-3-8.2,2.6-36.6,16.8-41.2c-3.9,5.7-2.3,8.5-2.3,8.5C698.8,132.5,731.3,107.4,750.3,108.6z"/>
			<path fill="#222222" d="M684.9,177.4c0,0-7.2,6.3-8.6,17.9c-0.9,7,3.3,18.6,3.3,18.6l-4.5,1.6c0,0-7.2-11.4-0.8-25.4
				c5.2-11.4,10.2-13.9,10.2-13.9L684.9,177.4z"/>
		</g>
		
			<text transform="matrix(1 0 0 1 218.0402 309.6599)" fill="#222222" font-family="'SugarstyleMillenial-Regular'" font-size="391.3348">Airy</text>
		<text transform="matrix(1 0 0 1 497.7351 172.7145)" font-family="'SugarstyleMillenial-Regular'" font-size="99.2463">condom</text>
	</g>
</g>
</svg>
