<?xml version="1.0" encoding="utf-8"?>
<!-- Generator: Adobe Illustrator 18.0.0, SVG Export Plug-In . SVG Version: 6.00 Build 0)  -->
<!DOCTYPE svg PUBLIC "-//W3C//DTD SVG 1.1//EN" "http://www.w3.org/Graphics/SVG/1.1/DTD/svg11.dtd">
<svg version="1.1" id="Layer_1" xmlns="http://www.w3.org/2000/svg" xmlns:xlink="http://www.w3.org/1999/xlink" x="0px" y="0px"
	 viewBox="0 629.3 1000 370.7" enable-background="new 0 629.3 1000 370.7" xml:space="preserve">
<g id="Layer_3">
</g>
<g id="Layer_1_1_">
</g>
<g id="Layer_2">
	<g>
		<g>
			<path fill="#F6F5F6" d="M368.2,655.5c14.5,9.5,20.5,13.8,21.1,19.5c-14.5-20.2-44.4-28.5-79.7-13.4c8.4,2.1,14.1,5.6,17,11.5
				c-12.7-7.1-17.8-21.5-77.3,15.6c-8.4,5.2-60.7,49.7-55.4,55.5c15.8-1.2,41.7-13.6,74.4-18.3c56.8-8.1,131.5,2.1,184.8,23.4
				c23,9.2,39-6.9,39-6.9s-44.3-37.6-127.2-45.3c-90-8.4-128.2,19.5-129.4,16.4c-0.6-1.6,35.7-17.2,88.3-20.5
				c38.1-2.4,84.3,6.4,125.2,21.2c12.8,4.6,31.9,15.8,43.5,25.6c2.1-14.2-16.1-57.7-40.3-60.5c8.1,7.9,6.5,12.8,6.5,12.8
				C458.3,677,398.1,647.4,368.2,655.5z"/>
			<path fill="#F6F5F6" d="M495.2,744.3c0,0,13.5,7.7,19.6,25.9c3.7,11,0.8,30.9,0.8,30.9l7.7,1.2c0,0,7.8-20.6-7-41
				c-12-16.6-20.9-18.9-20.9-18.9L495.2,744.3z"/>
		</g>
		<g>
			<g>
				<path fill="#F6F5F6" d="M49.4,926.5c0-2.6,0-5.1,0-7.7c2.8-3.9,6.2-6,11.3-5.6c4.5,0.4,9,0.1,13.8,0.1c0-1.7,0-3.1,0-4.4
					c0-33,0-66.1,0-99.1c0-3.4,0.1-6.9,0.8-10.3c2.9-15.3,10-28.2,22.5-37.8c1.7-1.3,2.6-2.7,2.5-5.1c-0.1-3.8,0-7.6,0.7-11.3
					c2.3-11.6,8.7-20.1,19.7-24.7c3.5-1.5,7.2-2.3,10.8-3.4c2.3,0,4.6,0,7,0c0.5,0.2,0.9,0.6,1.4,0.7c9.7,1.2,17.2,5.8,23.1,13.6
					c5.6,7.4,7.3,15.8,6.7,24.8c-0.2,2.6,0.7,4.2,2.7,5.7c15.2,11.8,22.8,27.8,23,46.8c0.4,33.5,0.1,67,0.1,100.5c0,1.3,0,2.7,0,4.3
					c5.5,0,10.6-0.3,15.7,0.1c2.5,0.2,5.2,1.5,7.2,3.1c1.5,1.3,2,3.8,2.9,5.8c0,0.5,0,0.9,0,1.4c-0.8,1.6-1.3,3.3-2.3,4.7
					c-2.5,3.5-6.5,3.6-10.2,3.6c-49.4,0.1-98.7,0-148.1,0.1C55.9,932.1,52,930.6,49.4,926.5z M176.7,913.2c0-1.8,0-3.2,0-4.5
					c0-33.6,0.1-67.2-0.1-100.8c0-3.9-0.8-7.9-2-11.7c-3.1-10-9.6-17.6-18.3-23.1c-3.4-2.1-5-4.7-4.7-8.8c0.3-3.2,0-6.5,0.1-9.7
					c0-5.7-1.7-10.7-6-14.7c-4.6-4.2-9.9-5-15.6-3.3c-6.1,1.8-10,6.1-11,12.4c-0.8,5.3-0.8,10.8-0.7,16.2c0.1,3.5-1.5,5.6-4,7.6
					c-3.6,2.9-7.6,5.6-10.8,9c-6.4,7-10.4,15.3-10.4,24.9c-0.1,34.2,0,68.4,0,102.6c0,1.3,0,2.7,0,4.1
					C121.2,913.2,148.8,913.2,176.7,913.2z"/>
				<path fill="#F6F5F6" d="M104.3,852c0-11.7-0.1-23.4,0-35.1c0.2-11,5.4-19.3,14.5-25.3c4.6-3,11-0.9,13.2,2.9
					c2.5,4.4,1.5,9.9-3,12.9c-4.6,3.1-6.7,7.2-6.7,12.7c0.1,22.7,0,45.5,0,68.2c0,5.8-3.3,9.1-9.1,9.1c-5.9,0-9-3.2-9-9.1
					C104.3,876.1,104.3,864.1,104.3,852z"/>
				<line fill="none" x1="64.5" y1="949.4" x2="65.1" y2="949.4"/>
				<line fill="none" x1="-18.7" y1="882.8" x2="-18.1" y2="882.8"/>
			</g>
			
				<text transform="matrix(1 0 0 1 227.7336 926.0627)" fill="#F6F5F6" font-family="'QuicksandBook-Regular'" font-size="254.8733">iry</text>
			
				<text transform="matrix(1 0 0 1 227.7336 926.0627)" fill="none" stroke="#F7F8F8" stroke-width="7" stroke-miterlimit="10" font-family="'QuicksandBook-Regular'" font-size="254.8733">iry</text>
			<g>
				
					<text transform="matrix(1 0 0 1 537.4365 870.3036)" stroke="#F7F8F8" stroke-width="7" stroke-miterlimit="10" font-family="'QuicksandBook-Regular'" font-size="163.1932">™</text>
			</g>
		</g>
	</g>
</g>
</svg>
